HIERARCHY
ROOT Hips
{
	OFFSET -3.958830 18.904000 13.208200
	CHANNELS 6 Xposition Yposition Zposition Zrotation Yrotation Xrotation 
	JOINT LHipJoint
	{
		OFFSET 0.000000 0.000000 0.000000
		CHANNELS 3 Zrotation Yrotation Xrotation
		JOINT LeftUpLeg
		{
			OFFSET 1.800000 -1.400000 0.085000
			CHANNELS 3 Zrotation Yrotation Xrotation
			JOINT LeftLeg
			{
				OFFSET 2.215000 -6.000000 0.000000
				CHANNELS 3 Zrotation Yrotation Xrotation
				JOINT LeftFoot
				{
					OFFSET 2.500000 -6.900000 0.000000
					CHANNELS 3 Zrotation Yrotation Xrotation
					JOINT LeftToeBase
					{
						OFFSET 0.200000 -0.500000 1.950000
						CHANNELS 3 Zrotation Yrotation Xrotation
						End Site
						{
							OFFSET 0.000000 0.000000 0.000000
						}
					}
				}
			}
		}
	}
	JOINT RHipJoint
	{
		OFFSET 0.000000 0.000000 0.000000
		CHANNELS 3 Zrotation Yrotation Xrotation
		JOINT RightUpLeg
		{
			OFFSET -1.800000 -1.400000 0.085000
			CHANNELS 3 Zrotation Yrotation Xrotation
			JOINT RightLeg
			{
				OFFSET -2.215000 -6.000000 0.000000
				CHANNELS 3 Zrotation Yrotation Xrotation
				JOINT RightFoot
				{
					OFFSET -2.500000 -6.900000 0.000000
					CHANNELS 3 Zrotation Yrotation Xrotation
					JOINT RightToeBase
					{
						OFFSET -0.200000 -0.500000 1.950000
						CHANNELS 3 Zrotation Yrotation Xrotation
						End Site
						{
							OFFSET 0.000000 0.000000 0.000000
						}
					}
				}
			}
		}
	}
	JOINT LowerBack
	{
		OFFSET 0.000000 0.000000 0.000000
		CHANNELS 3 Zrotation Yrotation Xrotation
		JOINT Spine
		{
			OFFSET -0.087000 1.940000 -0.288900
			CHANNELS 3 Zrotation Yrotation Xrotation
			JOINT Spine1
			{
				OFFSET 0.000000 1.950000 0.060000
				CHANNELS 3 Zrotation Yrotation Xrotation
				JOINT Neck
				{
					OFFSET 0.000000 0.000000 0.000000
					CHANNELS 3 Zrotation Yrotation Xrotation
					JOINT Neck1
					{
						OFFSET 0.000000 1.600000 0.340000
						CHANNELS 3 Zrotation Yrotation Xrotation
						JOINT Head
						{
							OFFSET 0.000000 1.667000 -0.240000
							CHANNELS 3 Zrotation Yrotation Xrotation
							End Site
							{
								OFFSET 0.000000 0.000000 0.000000
							}
						}
					}
				}
				JOINT LeftShoulder
				{
					OFFSET 0.000000 0.000000 0.000000
					CHANNELS 3 Zrotation Yrotation Xrotation
					JOINT LeftArm
					{
						OFFSET 2.700000 1.550000 -0.730000
						CHANNELS 3 Zrotation Yrotation Xrotation
						JOINT LeftForeArm
						{
							OFFSET 5.450000 0.000000 0.000000
							CHANNELS 3 Zrotation Yrotation Xrotation
							JOINT LeftHand
							{
								OFFSET 3.450000 0.000000 0.000000
								CHANNELS 3 Zrotation Yrotation Xrotation
								JOINT LeftHandIndex1
								{
									OFFSET 0.750000 0.000000 0.000000
									CHANNELS 3 Zrotation Yrotation Xrotation
									End Site
									{
										OFFSET 0.000000 0.000000 0.000000
									}
								}
							}
						}
					}
				}
				JOINT RightShoulder
				{
					OFFSET 0.000000 0.000000 0.000000
					CHANNELS 3 Zrotation Yrotation Xrotation
					JOINT RightArm
					{
						OFFSET -2.700000 1.550000 -0.730000
						CHANNELS 3 Zrotation Yrotation Xrotation
						JOINT RightForeArm
						{
							OFFSET -5.450000 0.000000 0.000000
							CHANNELS 3 Zrotation Yrotation Xrotation
							JOINT RightHand
							{
								OFFSET -3.450000 0.000000 0.000000
								CHANNELS 3 Zrotation Yrotation Xrotation
								JOINT RightHandIndex1
								{
									OFFSET -0.750000 0.000000 0.000000
									CHANNELS 3 Zrotation Yrotation Xrotation
									End Site
									{
										OFFSET 0.000000 0.000000 0.000000
									}
								}
							}
						}
					}
				}
			}
		}
	}
}
MOTION
Frames: 12
Frame Time: 0.016667
-3.883340 15.969320 -1.114150 -9.335857 -1.782659 -19.216911 -15.874145 14.384138 2.174775 36.920800 -4.575904 -10.572642 14.688893 5.159955 39.413221 -0.010083 7.972990 1.647809 1.017720 0.731680 0.836810 17.690997 -9.043353 2.973891 -23.997055 1.675649 -16.194609 25.577541 -26.545601 50.333773 -2.143025 -10.978641 0.729517 0.384290 0.069880 0.256530 -1.743850 -5.810979 -7.761563 -37.536622 5.953971 11.398456 10.502197 7.242252 22.985531 -8.582851 -2.286451 -16.170183 -9.985477 5.679858 46.791646 7.252350 5.190770 -18.101680 12.393237 -33.782337 1.699273 -6.922551 -30.738651 -9.023397 42.236577 -36.052240 -17.159714 -3.443550 3.000141 0.764020 -0.061240 0.264700 0.318650 4.592855 39.067941 16.297601 39.034122 22.943856 -7.104466 53.026178 51.130673 14.717785 1.965101 -1.788751 -0.079060 0.271190 -0.395310 -0.216590 
-3.937700 16.069940 -1.064750 -8.651084 -1.080168 -20.073645 -15.803868 14.583431 2.029182 35.537382 -3.763223 -7.741710 15.097710 4.593250 35.834343 0.090222 7.395546 1.878789 1.118590 0.852380 0.898880 17.676203 -9.323659 2.905742 -24.085618 1.519179 -13.744233 25.311699 -25.561449 48.639089 -2.164896 -10.600156 0.859659 0.357740 -0.037850 0.301970 -1.820453 -5.654376 -7.632815 -37.583823 5.075033 10.997340 6.713778 7.948969 22.798414 -7.316677 -3.356313 -17.356415 -13.160776 7.452328 48.675703 8.457990 5.352790 -20.463250 10.782053 -33.937209 2.004007 -7.045265 -30.958273 -7.578674 35.852922 -34.503742 -13.350923 -3.264140 3.062604 0.800350 -0.159820 0.403410 0.382460 3.792391 39.799802 17.986780 39.734224 22.243707 -8.027324 48.843134 61.774503 17.075438 1.945504 -1.848626 0.043520 0.203470 -0.514470 -0.167290 
-4.050330 16.202190 -0.947470 -7.643974 -3.202074 -20.923763 -15.738430 14.682653 2.089227 35.909679 -2.662136 -2.390833 12.282137 5.956276 32.191617 0.235883 7.332478 1.990590 0.994270 0.732790 0.816160 17.683459 -9.587952 2.659709 -22.788510 1.435383 -11.280304 22.652254 -23.539300 47.894308 -2.012976 -10.090426 1.059573 0.235170 -0.010990 0.252930 -1.897753 -5.477942 -7.509886 -36.259294 2.973472 8.802249 0.771867 8.347273 21.467157 -4.440478 -5.859021 -19.504758 -19.260730 11.361996 45.974747 9.542370 5.461350 -20.672480 10.281102 -32.076737 4.375104 -10.603112 -29.627445 -4.724544 27.914227 -31.159372 -9.105364 -3.172804 3.016152 0.792260 -0.192800 0.388860 0.354550 -0.821310 39.472095 19.109848 35.731031 19.279937 -6.141516 67.912843 72.749880 33.121483 2.371128 -1.540671 0.044030 0.228200 -0.472680 -0.129200 
-4.151190 16.305870 -0.885230 -6.295434 -6.133751 -23.633982 -15.766513 14.738145 2.317564 37.238898 -1.430780 3.691029 8.402384 8.022026 30.614524 0.337457 7.916992 1.889263 0.861050 0.611130 0.677360 17.652624 -9.623188 2.356807 -22.156625 1.693284 -7.837741 20.259958 -21.777984 47.721911 -1.900275 -9.788658 1.177623 0.194810 0.059060 0.189480 -1.787811 -5.623976 -7.463625 -36.058866 2.418594 8.407537 -1.697790 9.679259 22.457415 -1.819635 -8.021223 -21.331738 -23.939063 13.900882 40.743407 9.721850 5.660440 -22.175240 10.560687 -31.029698 6.541845 -13.485293 -28.546587 -1.364339 21.004579 -21.694718 -5.200306 -3.234867 2.915621 0.850220 -0.196500 0.342700 0.337400 -5.559081 40.445855 19.382616 22.524679 8.381469 -13.755610 115.328304 72.995727 75.518609 2.894693 0.218755 -0.060840 0.316730 -0.377490 -0.128190 
-4.218860 16.391780 -0.779570 -4.959215 -7.937039 -24.108759 -15.548971 14.336505 2.491140 37.404560 -0.443416 7.624195 3.872827 9.991353 30.089056 0.748297 8.079491 1.880968 0.986350 0.750180 0.790960 17.792666 -10.117501 2.433750 -23.371302 1.537233 -6.920678 20.017941 -20.940353 46.383850 -1.955297 -9.405026 1.308400 0.124760 -0.115650 0.197320 -2.250572 -4.201690 -7.636312 -34.326666 0.866525 9.048386 -3.902945 7.478578 19.319598 0.970073 -9.923460 -25.088163 -31.822844 18.017037 42.612011 15.165740 6.115790 -24.924750 5.635171 -28.971634 9.001420 -18.455738 -22.904966 1.245817 11.872300 -19.928376 -2.302680 -2.931899 2.935080 0.905620 -0.389350 0.535590 0.396800 -4.030115 40.575917 19.281464 8.069445 -6.185973 -17.425911 133.356376 78.520162 113.546271 1.766405 -0.690088 0.108390 0.223150 -0.558850 -0.065570 
-4.286420 16.445580 -0.633620 -4.659635 -8.925674 -18.188643 -14.973230 13.276355 2.570490 36.150867 -0.246443 4.360870 -1.530461 12.461032 32.354864 0.825101 8.218169 1.777320 0.832980 0.612130 0.717150 18.227336 -11.122660 3.113000 -23.713997 1.482547 -13.596808 21.846568 -21.373141 44.767141 -1.877813 -9.163763 1.377135 -0.013190 -0.068730 0.154680 -3.563271 -0.554051 -8.257328 -28.472371 -0.978578 7.175496 -6.713201 -0.099108 7.402791 4.374861 -9.272413 -28.758567 -32.688477 22.095482 52.029617 17.555060 8.036800 -19.568390 0.855661 -24.396215 10.007507 -28.609010 -13.136656 2.479169 0.348512 -23.110353 -0.056698 -2.916765 2.772270 0.929910 -0.385550 0.548930 0.341790 -5.051393 34.750578 19.954536 -3.006190 -6.678667 -5.598232 -126.479922 87.760223 -134.620803 1.857841 -2.532620 0.091690 0.263040 -0.480460 -0.054810 
-4.313400 16.528640 -0.518880 -6.044393 -10.143221 -10.947895 -14.590457 12.544997 2.815869 35.020474 -0.540271 -1.114392 -5.486355 14.391280 34.153462 0.834533 8.267475 1.688380 0.893170 0.617330 0.845390 18.517001 -11.763894 3.605195 -21.318327 1.895141 -21.148195 20.536299 -20.780951 45.150842 -1.831493 -8.831571 1.459701 -0.034520 -0.205050 0.149610 -4.369032 2.041662 -8.946583 -21.120190 -1.753179 5.490621 -8.947542 -6.635395 -7.520251 6.854615 -8.046001 -27.311549 -26.800136 20.883503 62.663539 17.304630 8.280140 -16.970520 -0.850976 -17.881267 10.706182 -38.117580 -3.034715 1.205036 -5.181313 -21.778133 0.890069 -2.846951 2.798041 1.012870 -0.454670 0.637960 0.356510 -10.135659 28.732582 14.660475 -10.219980 -2.348107 -1.167835 12.539315 80.100417 13.094667 1.979460 -2.334855 0.100510 0.179630 -0.595150 -0.114450 
-4.328640 16.553680 -0.531100 -6.238925 -12.864371 -11.668587 -14.597160 12.711544 3.009063 34.731900 -0.214082 -0.986888 -7.055780 15.988300 36.949222 0.948760 8.993677 1.503230 0.743730 0.416110 0.804750 18.489310 -11.622460 3.577353 -20.361604 2.648584 -21.645438 18.730224 -20.282380 47.276163 -1.807441 -8.867586 1.496211 -0.143330 -0.130270 0.126470 -4.296670 1.397525 -9.108067 -14.788214 -3.013137 9.623986 -11.249676 -7.884173 -10.683580 9.630185 -7.496309 -26.586255 -24.129192 18.246225 63.685014 15.098120 7.096190 -17.819430 0.471774 -12.843557 10.221312 -41.580013 3.153944 -1.262564 -1.949478 -19.547706 -0.010958 -2.962080 2.626166 1.062140 -0.419130 0.595160 0.303900 -17.474904 27.457756 12.156481 -15.431346 -0.361692 -3.285406 -9.130053 61.510831 0.724290 2.035540 -2.029311 0.011110 0.266060 -0.492290 -0.151270 
-4.318540 16.551600 -0.632860 -6.620924 -14.192616 -17.165644 -14.679033 13.062604 2.995939 35.040323 -0.645478 1.235484 -5.654604 16.132780 41.330777 1.188216 9.499406 1.313936 0.781460 0.416500 0.922060 18.419351 -11.527731 3.199740 -19.825443 2.490511 -17.180122 16.547716 -19.856696 49.804465 -1.929358 -9.038194 1.408929 -0.212160 -0.331110 0.176940 -4.123623 0.197201 -8.712963 -10.364954 -5.571575 20.211713 -13.635279 -8.527756 -7.887816 11.629756 -6.556200 -25.654591 -22.549626 15.452908 62.259674 13.666330 6.940350 -23.595900 -0.089058 -9.240802 9.471758 -42.534173 7.018196 -4.696757 0.140761 -21.894883 -0.734588 -2.807901 2.789050 1.114870 -0.530220 0.687140 0.225980 -21.287052 25.804837 11.860014 -22.129595 -2.179203 -5.386504 -22.428705 36.505099 -1.627122 2.697864 -1.869426 0.106440 0.089270 -0.547110 -0.206200 
-4.304620 16.533630 -0.724650 -6.270560 -15.337386 -22.143491 -14.872626 13.514546 2.935087 34.122190 -1.270291 3.345478 -3.978548 15.600964 45.035806 1.370569 9.763116 1.256990 0.871850 0.514290 1.002060 18.229143 -11.523030 2.786598 -18.867185 2.072738 -13.717687 11.984665 -18.170040 52.945925 -1.990031 -9.042457 1.442869 -0.195750 -0.461720 0.164060 -3.572362 -1.043857 -8.271608 -8.371449 -6.499400 29.051723 -14.524158 -7.076886 -1.832429 12.611277 -6.562570 -23.887553 -22.941728 13.265273 59.161894 13.342230 5.851200 -27.429150 -1.140802 -9.623368 9.518954 -45.332423 6.028023 -6.728575 1.740822 -19.199455 -1.462115 -2.649076 2.882644 1.140130 -0.618200 0.760780 0.255630 -22.118389 23.930814 13.437313 -28.490742 -11.658684 -6.339797 -29.503107 11.469754 -0.677077 3.594614 -1.510323 0.162150 0.018460 -0.663610 -0.211570 
-4.313600 16.513260 -0.783180 -6.330934 -15.262484 -22.318165 -15.093839 13.910046 3.035311 32.734201 -2.137106 0.266478 -2.967652 15.250918 48.767418 1.358810 10.023827 1.117544 0.849030 0.499270 0.923210 18.037782 -11.285286 2.534734 -17.123303 1.727968 -14.502407 8.096946 -16.489337 54.940821 -1.880414 -8.961740 1.453869 -0.174730 -0.454520 0.159060 -3.006643 -2.144039 -8.252621 -5.726714 -5.006200 33.755541 -13.626560 -5.057525 -2.183503 12.121620 -5.206718 -20.621892 -17.966625 8.822790 57.433598 14.024260 2.380540 -23.847080 -3.955151 -12.522196 10.442143 -47.130129 6.315030 -7.452269 -0.629018 -15.015572 -1.203542 -2.699305 2.935338 1.069920 -0.583240 0.688350 0.250540 -18.617605 22.633454 12.429368 -34.885729 -19.706885 -3.757400 -37.333188 -1.165886 1.282213 3.761113 -1.257650 0.168480 -0.046830 -0.639650 -0.196180 
-4.348550 16.477840 -0.860620 -5.631115 -15.347423 -22.316600 -15.467770 14.524535 3.225035 31.566684 -3.003428 -3.582606 -2.223131 15.077763 52.397192 1.442747 10.359877 0.976307 0.907360 0.605990 0.770800 17.769211 -10.624428 2.133558 -15.116263 1.586130 -15.685754 3.577208 -13.916511 56.529153 -1.707151 -8.799434 1.504383 -0.080690 -0.362400 0.179680 -2.121975 -4.344652 -8.248505 -6.832759 -3.238881 38.053849 -9.590135 -3.418359 -2.022083 13.133854 -6.753275 -18.169169 -20.873442 8.374604 49.927756 14.572900 -1.960220 -16.133620 -5.115380 -10.736413 9.074514 -51.396280 5.742204 -9.412636 -0.807791 -15.758485 -1.474074 -2.730189 3.169612 0.858620 -0.496580 0.552710 0.348590 -18.825245 21.591881 11.055187 -36.059357 -25.996948 -3.775590 -51.573264 -12.948467 5.575284 3.804750 -1.572389 0.245640 -0.135240 -0.659440 -0.073740 
